o convex_0
v -30.748974 -31.017936 159.170659
v 30.583447 30.308482 612.795486
v -29.686343 30.308482 612.795486
v -29.686343 30.308482 63.976060
v 30.583447 -29.961309 63.976060
v 28.464189 -31.023940 612.795486
v 30.583447 30.308482 63.976060
v -30.748974 -29.961309 612.795486
v -28.629716 -31.023940 63.976060
v 30.583447 -29.961309 612.795486
v -30.748974 29.245851 63.976060
v -30.748974 29.245851 612.795486
v 28.464189 -31.023940 63.976060
v -28.629716 -31.023940 612.795486
v -30.748974 -29.961309 63.976060
f 11 9 15 
f 3 2 4 
f 2 3 6 
f 4 2 7 
f 5 4 7 
f 2 5 7 
f 6 3 8 
f 4 5 9 
f 5 2 10 
f 2 6 10 
f 6 5 10 
f 3 4 11 
f 1 8 11 
f 4 9 11 
f 8 3 12 
f 3 11 12 
f 11 8 12 
f 5 6 13 
f 9 5 13 
f 6 9 13 
f 8 1 14 
f 6 8 14 
f 1 9 14 
f 9 6 14 
f 9 1 15 
f 1 11 15 
o convex_1
v -152.339593 -95.509993 -0.528728
v 91.899100 95.851990 8.986923
v 94.008836 94.803020 8.986923
v -152.339593 -95.509993 8.987958
v -152.339593 95.851990 -0.528728
v 95.088235 -93.393322 -0.528728
v 92.953968 -95.509993 8.986923
v -155.528728 92.667618 8.987958
v 94.008836 94.803020 -0.528728
v 30.569577 30.291405 10.045828
v -153.394460 -31.017108 10.045828
v 25.295238 -85.994342 10.045828
v -25.485607 85.268638 10.045828
v -155.528728 -92.325621 -0.528728
v -153.394460 30.291405 10.045828
v -152.339593 95.851990 8.987958
v -155.528728 -92.325621 8.987958
v -155.528728 92.667618 -0.528728
v 92.953968 -95.509993 -0.528728
v 95.088235 -93.393322 8.986923
v 95.088235 93.735319 8.986923
v 25.295238 85.268638 10.045828
v -25.485607 -85.994342 10.045828
f 27 26 38 
f 16 20 21 
f 19 16 22 
f 17 18 24 
f 20 17 24 
f 21 20 24 
f 19 22 27 
f 25 26 27 
f 26 25 28 
f 16 19 29 
f 20 16 29 
f 23 26 30 
f 26 28 30 
f 30 28 31 
f 17 20 31 
f 20 23 31 
f 23 30 31 
f 26 23 32 
f 19 26 32 
f 29 19 32 
f 23 29 32 
f 23 20 33 
f 20 29 33 
f 29 23 33 
f 16 21 34 
f 22 16 34 
f 21 22 34 
f 22 21 35 
f 27 22 35 
f 25 27 35 
f 24 18 36 
f 21 24 36 
f 35 21 36 
f 25 35 36 
f 18 17 37 
f 28 25 37 
f 31 28 37 
f 17 31 37 
f 36 18 37 
f 25 36 37 
f 26 19 38 
f 19 27 38 
o convex_2
v -116.393118 -31.023940 10.056385
v -30.748974 30.308482 220.464161
v -31.808366 30.308482 220.464161
v -152.352945 30.308482 10.056385
v -58.257468 -31.023940 174.988400
v -30.748974 30.308482 157.008174
v -30.748974 -31.023940 157.008174
v -152.352945 -31.023940 11.127372
v -115.345629 30.308482 11.127372
v -30.748974 -31.023940 220.464161
v -149.174768 30.308482 17.470911
v -110.048666 -31.023940 19.571694
v -149.174768 -31.023940 17.470911
v -98.431059 30.308482 39.652702
v -31.808366 -31.023940 220.464161
f 43 48 53 
f 41 40 42 
f 42 40 44 
f 43 39 45 
f 44 40 45 
f 42 39 46 
f 39 43 46 
f 39 42 47 
f 42 44 47 
f 40 41 48 
f 43 45 48 
f 45 40 48 
f 41 42 49 
f 43 41 49 
f 42 46 49 
f 45 39 50 
f 39 47 50 
f 46 43 51 
f 43 49 51 
f 49 46 51 
f 44 45 52 
f 47 44 52 
f 45 50 52 
f 50 47 52 
f 41 43 53 
f 48 41 53 
o convex_3
v 23.175566 38.762226 773.526037
v -31.806430 -47.943228 765.070946
v 29.520816 -47.943228 760.840710
v -29.687275 30.303617 759.783151
v -31.806430 -39.475200 773.526037
v 30.583447 48.285226 760.840710
v -31.806430 39.817197 773.526037
v 27.407768 -39.475200 772.469823
v -31.806430 -28.906648 759.783151
v -31.806430 48.285226 765.070946
v 30.583447 -29.961619 759.783151
v 30.583447 37.707254 771.412264
v 22.119042 -46.878838 769.297146
v 24.232089 48.285226 767.182028
v 24.232089 -38.420229 773.526037
v 30.583447 30.303617 759.783151
v 30.583447 -41.594562 770.354705
f 61 66 70 
f 58 54 60 
f 55 58 60 
f 56 55 62 
f 55 60 62 
f 62 60 63 
f 59 57 63 
f 57 62 63 
f 56 62 64 
f 62 57 64 
f 64 59 65 
f 55 56 66 
f 58 55 66 
f 60 54 67 
f 63 60 67 
f 59 63 67 
f 54 65 67 
f 65 59 67 
f 54 58 68 
f 65 54 68 
f 61 65 68 
f 58 66 68 
f 66 61 68 
f 57 59 69 
f 64 57 69 
f 59 64 69 
f 56 64 70 
f 65 61 70 
f 64 65 70 
f 66 56 70 
o convex_4
v -30.745662 -29.961309 621.261134
v 32.698358 28.189223 682.582654
v 30.583137 30.308482 759.766694
v 30.583137 -29.961309 759.766694
v -31.806430 28.189223 759.766694
v -29.684894 30.308482 621.261134
v 32.698358 -28.898678 621.261134
v -30.739348 -29.961309 759.766694
v 30.583137 30.308482 621.261134
v 28.461601 -31.023940 621.261134
v -29.684894 30.308482 759.766694
v -28.630440 -31.023940 759.766694
v -31.806430 28.189223 621.261134
v -31.806430 -28.904681 759.766694
v 28.461601 -31.023940 759.766694
v -28.630440 -31.023940 621.261134
v -31.806430 -28.904681 621.261134
v 32.698358 -28.898678 682.582654
v 32.698358 28.189223 621.261134
f 77 79 89 
f 72 73 74 
f 74 73 75 
f 71 76 77 
f 74 75 78 
f 76 73 79 
f 77 76 79 
f 71 77 80 
f 77 74 80 
f 75 73 81 
f 73 76 81 
f 76 75 81 
f 78 71 82 
f 74 78 82 
f 75 76 83 
f 76 71 83 
f 71 78 84 
f 78 75 84 
f 75 83 84 
f 80 74 85 
f 74 82 85 
f 82 80 85 
f 71 80 86 
f 82 71 86 
f 80 82 86 
f 83 71 87 
f 71 84 87 
f 84 83 87 
f 72 74 88 
f 77 72 88 
f 74 77 88 
f 73 72 89 
f 72 77 89 
f 79 73 89 
o convex_5
v 30.583447 30.295232 63.976060
v -30.748974 -29.937502 10.056385
v -25.459833 -85.994859 10.056385
v -30.748974 -29.937502 63.976060
v -25.459833 85.279401 10.056385
v 25.294306 -85.994859 10.056385
v 25.294306 85.279401 10.056385
v 25.294306 -35.236372 63.976060
v -25.459833 35.594103 63.976060
v 30.583447 -29.937502 10.056385
v -30.748974 29.222043 63.976060
v 30.583447 -29.937502 63.976060
v 25.294306 85.279401 14.284448
v -25.459833 -85.994859 13.223473
v 30.583447 30.295232 10.056385
v -30.748974 29.222043 10.056385
v -25.459833 -35.236372 63.976060
v 25.294306 35.594103 63.976060
v -25.459833 85.279401 14.284448
v 25.294306 -85.994859 13.223473
f 97 103 109 
f 92 91 94 
f 92 94 95 
f 95 94 96 
f 90 93 97 
f 93 90 98 
f 95 96 99 
f 91 93 100 
f 93 98 100 
f 90 97 101 
f 95 99 101 
f 99 90 101 
f 96 94 102 
f 90 96 102 
f 91 92 103 
f 93 91 103 
f 92 95 103 
f 96 90 104 
f 99 96 104 
f 90 99 104 
f 94 91 105 
f 91 100 105 
f 100 94 105 
f 97 93 106 
f 93 103 106 
f 103 97 106 
f 98 90 107 
f 90 102 107 
f 102 98 107 
f 94 100 108 
f 100 98 108 
f 102 94 108 
f 98 102 108 
f 101 97 109 
f 95 101 109 
f 103 95 109 
o convex_6
v -31.806430 74.710332 613.854908
v -68.817373 -70.148242 624.425530
v -67.755881 -71.195450 622.310412
v -31.806430 -79.666895 620.196536
v -31.806430 28.179907 625.483710
v -68.817373 70.490239 625.483710
v -56.126561 -69.085404 612.795486
v -59.296547 68.364563 613.854908
v -31.806430 -72.258288 612.795486
v -59.296547 -79.666895 625.483710
v -31.806430 80.008892 620.196536
v -54.014445 71.537447 612.795486
v -31.806430 -28.900748 625.483710
v -59.296547 78.946054 625.483710
v -67.755881 68.364563 621.253474
v -61.412286 -66.975358 614.911846
v -31.806430 71.537447 612.795486
v -52.952953 -78.604057 617.026964
f 125 116 127 
f 113 110 114 
f 110 113 118 
f 111 112 119 
f 115 111 119 
f 114 115 119 
f 114 110 120 
f 116 117 121 
f 118 116 121 
f 120 110 121 
f 113 114 122 
f 119 113 122 
f 114 119 122 
f 115 114 123 
f 114 120 123 
f 121 117 123 
f 120 121 123 
f 112 111 124 
f 111 115 124 
f 115 123 124 
f 123 117 124 
f 117 116 125 
f 112 124 125 
f 124 117 125 
f 110 118 126 
f 121 110 126 
f 118 121 126 
f 118 113 127 
f 116 118 127 
f 119 112 127 
f 113 119 127 
f 112 125 127 
o convex_7
v 41.152413 72.600286 615.967852
v -31.806430 -79.666895 619.138563
v -31.806430 -79.666895 620.196846
v -31.806430 80.008892 620.196846
v -31.806430 71.537447 612.795486
v 34.810164 -71.195450 612.795486
v 46.445280 -71.195450 621.255130
v -31.806430 -72.258288 612.795486
v 44.323538 74.710332 621.255130
v 33.753123 71.537447 612.795486
v -31.806430 -28.900748 621.255130
v 36.924247 -79.666895 621.255130
v 41.152413 -69.085404 614.910397
v 30.581998 80.008892 621.255130
v 45.380579 67.317355 618.082763
v -31.806430 28.179907 621.255130
v 32.696081 -77.541219 615.967852
f 140 139 144 
f 129 130 131 
f 129 131 132 
f 129 132 135 
f 132 133 135 
f 132 131 137 
f 133 132 137 
f 131 130 138 
f 134 136 138 
f 130 129 139 
f 138 130 139 
f 134 138 139 
f 137 128 140 
f 133 137 140 
f 134 139 140 
f 136 128 141 
f 128 137 141 
f 137 131 141 
f 138 136 141 
f 128 136 142 
f 136 134 142 
f 140 128 142 
f 134 140 142 
f 131 138 143 
f 141 131 143 
f 138 141 143 
f 129 135 144 
f 135 133 144 
f 139 129 144 
f 133 140 144 
o convex_8
v -82.558706 -57.458465 701.633757
v -31.806430 -28.909029 773.519826
v -44.497138 -28.909029 773.519826
v -75.157552 -28.909029 682.596453
v -31.806430 -47.941986 765.055835
v -75.157552 -63.805062 682.596453
v -85.736662 -28.909029 700.574645
v -57.193126 -41.598806 763.996724
v -48.730894 -47.941986 766.114947
v -84.675584 -51.115285 683.655564
v -61.405765 -28.909029 757.659856
v -83.619784 -48.997475 709.029736
v -31.806430 -28.909029 765.055835
v -76.218631 -59.572859 709.029736
v -83.619784 -28.909029 682.596453
v -42.385539 -39.487828 773.519826
f 152 153 160 
f 147 146 148 
f 148 149 150 
f 147 148 151 
f 150 145 154 
f 147 151 155 
f 152 147 155 
f 152 155 156 
f 145 152 156 
f 154 145 156 
f 151 154 156 
f 155 151 156 
f 148 146 157 
f 149 148 157 
f 146 149 157 
f 145 150 158 
f 150 149 158 
f 152 145 158 
f 149 153 158 
f 153 152 158 
f 148 150 159 
f 151 148 159 
f 150 154 159 
f 154 151 159 
f 146 147 160 
f 149 146 160 
f 147 152 160 
f 153 149 160 
o convex_9
v 65.476064 -52.158559 688.936528
v 31.642352 39.812539 770.356361
v 33.756746 37.691003 769.282448
v 57.018490 64.147059 682.596143
v 30.586863 -28.897436 682.587551
v 30.586863 -46.867348 765.055524
v 63.361671 48.273426 710.079739
v 30.586863 28.181977 682.587551
v 63.361671 -48.988884 710.079739
v 54.904097 -64.862517 682.596143
v 30.586863 49.334193 759.780460
v 36.930044 -36.297554 766.120846
v 64.420575 50.394961 682.596143
v 60.188373 57.795080 706.918138
v 58.073979 -59.571306 706.918138
v 44.332129 38.764400 751.309430
v 65.476064 51.443101 700.569160
v 30.586863 -48.988884 758.715138
v 64.420575 -51.110420 682.596143
v 54.904097 64.147059 682.596143
v 30.586863 -39.479858 770.356361
v 35.871139 44.042982 764.007384
v 65.476064 -50.049652 701.625891
v 37.985533 -44.758441 759.780460
f 172 181 184 
f 165 166 168 
f 168 166 171 
f 168 164 173 
f 165 168 173 
f 164 171 174 
f 170 161 175 
f 169 167 176 
f 163 172 176 
f 172 169 176 
f 173 164 177 
f 161 173 177 
f 174 167 177 
f 164 174 177 
f 166 165 178 
f 165 170 178 
f 175 166 178 
f 170 175 178 
f 161 170 179 
f 170 165 179 
f 173 161 179 
f 165 173 179 
f 164 168 180 
f 171 164 180 
f 168 171 180 
f 163 162 181 
f 162 171 181 
f 171 166 181 
f 172 163 181 
f 162 163 182 
f 171 162 182 
f 167 174 182 
f 174 171 182 
f 176 167 182 
f 163 176 182 
f 167 169 183 
f 175 161 183 
f 169 175 183 
f 161 177 183 
f 177 167 183 
f 169 172 184 
f 175 169 184 
f 166 175 184 
f 181 166 184 
o convex_10
v -68.817963 -71.189447 625.484952
v -75.162296 64.139192 682.581962
v -74.102923 65.194991 680.469121
v -59.300274 -28.895365 682.581962
v -60.359646 78.951436 625.484952
v -83.620612 -55.336929 681.525541
v -69.874955 67.306590 625.484952
v -60.359646 -79.666895 625.484952
v -83.620612 54.605945 682.581962
v -59.300274 28.179907 682.581962
v -75.162296 -64.854650 682.581962
v -59.300274 28.179907 625.484952
v -69.874955 -66.966249 625.484952
v -83.620612 51.454073 679.412700
v -68.817963 73.641387 628.659803
v -59.300274 -28.895365 625.484952
v -80.447256 -54.281130 666.718887
v -68.817963 -74.372371 637.122346
f 192 195 202 
f 189 185 191 
f 185 189 192 
f 188 186 193 
f 187 186 194 
f 186 188 194 
f 189 187 194 
f 192 188 195 
f 188 193 195 
f 193 190 195 
f 192 189 196 
f 194 188 196 
f 189 194 196 
f 185 190 197 
f 191 185 197 
f 190 193 198 
f 193 191 198 
f 186 187 199 
f 187 189 199 
f 189 191 199 
f 193 186 199 
f 191 193 199 
f 188 192 200 
f 192 196 200 
f 196 188 200 
f 197 190 201 
f 191 197 201 
f 198 191 201 
f 190 198 201 
f 190 185 202 
f 185 192 202 
f 195 190 202 
o convex_11
v -59.300274 -28.909029 625.490541
v -31.806430 28.193570 682.576373
v -31.806430 28.193570 625.490541
v -59.300274 28.193570 682.576373
v -31.806430 -28.909029 682.576373
v -59.300274 -28.909029 682.576373
v -31.806430 -28.909029 625.490541
v -59.300274 28.193570 625.490541
f 203 206 210 
f 204 205 206 
f 205 204 207 
f 204 206 207 
f 206 203 208 
f 203 207 208 
f 207 206 208 
f 203 205 209 
f 207 203 209 
f 205 207 209 
f 205 203 210 
f 206 205 210 
o convex_12
v -83.619784 51.456350 707.970625
v -31.806430 39.831999 773.519826
v -31.806430 28.193570 773.519826
v -75.157552 28.193570 682.596453
v -75.157552 64.147059 682.596453
v -58.248925 28.193570 763.996724
v -50.847771 48.281913 763.996724
v -85.736662 28.193570 700.574645
v -31.806430 48.281913 765.055835
v -84.675584 50.393512 683.655564
v -78.330229 60.972622 701.633757
v -31.806430 28.193570 765.055835
v -54.015170 40.884279 768.233169
v -83.619784 28.193570 682.596453
v -82.558706 28.193570 712.207070
f 218 216 225 
f 214 213 216 
f 214 216 218 
f 212 213 219 
f 214 215 219 
f 217 212 219 
f 218 211 220 
f 211 217 221 
f 219 215 221 
f 217 219 221 
f 220 211 221 
f 215 220 221 
f 213 214 222 
f 219 213 222 
f 214 219 222 
f 213 212 223 
f 211 216 223 
f 216 213 223 
f 217 211 223 
f 212 217 223 
f 215 214 224 
f 214 218 224 
f 220 215 224 
f 218 220 224 
f 216 211 225 
f 211 218 225 
o convex_13
v 45.389895 -75.431172 622.323661
v 62.304940 57.798703 682.587551
v 61.248312 57.798703 682.587551
v 37.987499 80.008892 621.267137
v 32.701360 -28.900748 682.575545
v 62.304940 -58.503914 682.581548
v 33.757988 -79.666895 621.267137
v 32.701360 28.179907 682.575545
v 49.616405 68.364563 625.493233
v 33.757988 80.008892 622.323661
v 61.248312 -54.268191 669.897257
v 54.902544 -64.849682 682.581548
v 54.902544 65.191679 681.525024
v 48.556776 -65.896890 622.323661
v 32.701360 28.179907 621.267137
v 63.361567 51.452934 678.355452
v 46.446523 72.584656 621.267137
v 50.673032 -66.975358 628.662805
v 45.389895 77.883216 632.894904
v 44.333268 -78.604057 633.951428
v 32.701360 -28.900748 621.267137
f 230 240 246 
f 230 228 233 
f 227 228 237 
f 228 230 237 
f 231 227 237 
f 230 232 237 
f 228 227 238 
f 233 228 238 
f 235 233 238 
f 226 232 239 
f 229 232 240 
f 230 233 240 
f 235 229 240 
f 233 235 240 
f 227 231 241 
f 234 227 241 
f 231 236 241 
f 232 229 242 
f 239 232 242 
f 234 239 242 
f 231 226 243 
f 236 231 243 
f 226 239 243 
f 239 234 243 
f 234 241 243 
f 241 236 243 
f 227 234 244 
f 229 235 244 
f 238 227 244 
f 235 238 244 
f 242 229 244 
f 234 242 244 
f 226 231 245 
f 232 226 245 
f 231 237 245 
f 237 232 245 
f 232 230 246 
f 240 232 246 
o convex_14
v -59.299446 28.193570 761.886263
v -83.619784 -28.909029 682.596452
v -83.619784 28.193570 682.596452
v -31.806430 -28.909029 682.605353
v -44.502417 -28.909029 773.519826
v -31.806430 28.193570 682.605353
v -31.806430 28.193570 773.519826
v -82.563985 -28.909029 712.201067
v -31.806430 -28.909029 773.519826
v -84.675584 28.193570 705.863579
v -58.243646 -28.909029 763.995792
v -50.842492 28.193570 771.401396
v -85.736662 -28.909029 700.576405
v -85.736662 28.193570 688.942841
f 248 259 260 
f 248 249 250 
f 248 250 251 
f 249 247 252 
f 250 249 252 
f 252 247 253 
f 250 252 253 
f 248 251 254 
f 251 250 255 
f 253 251 255 
f 250 253 255 
f 247 249 256 
f 254 247 256 
f 247 254 257 
f 254 251 257 
f 253 247 258 
f 251 253 258 
f 247 257 258 
f 257 251 258 
f 248 254 259 
f 254 256 259 
f 259 256 260 
f 249 248 260 
f 256 249 260 
