o convex_0
v 12.198354 69.338427 697.013426
v 11.939643 54.300652 658.370815
v 11.939643 77.118666 658.370815
v 30.611008 75.045723 677.306300
v 23.349030 55.598476 697.013426
v 26.720305 54.300652 658.370815
v 10.122644 55.598476 697.013426
v 26.720305 77.118666 658.374598
v 10.122644 76.857314 682.745618
v 30.609003 56.634947 682.745618
v 29.830862 76.857314 682.745618
v 10.122644 54.300652 672.899620
v 23.607742 64.933422 697.013426
v 27.757157 54.300652 682.745618
v 10.900785 77.118666 661.226646
v 30.609003 56.375829 677.302517
v 10.122644 77.118666 672.899620
v 17.125910 69.079309 697.013426
v 30.609003 70.115781 682.745618
v 10.122644 54.300652 681.448201
v 10.122644 61.303537 697.013426
f 9 7 21 
f 2 3 6 
f 5 1 7 
f 6 3 8 
f 4 6 8 
f 4 8 11 
f 9 1 11 
f 2 6 12 
f 7 9 12 
f 1 5 13 
f 5 10 13 
f 5 7 14 
f 10 5 14 
f 12 6 14 
f 3 2 15 
f 8 3 15 
f 2 12 15 
f 6 4 16 
f 4 10 16 
f 10 14 16 
f 14 6 16 
f 11 8 17 
f 9 11 17 
f 12 9 17 
f 8 15 17 
f 15 12 17 
f 11 1 18 
f 1 13 18 
f 13 11 18 
f 10 4 19 
f 4 11 19 
f 13 10 19 
f 11 13 19 
f 7 12 20 
f 14 7 20 
f 12 14 20 
f 7 1 21 
f 1 9 21 
o convex_1
v -12.699381 48.076644 739.803752
v 15.309572 57.926018 719.836923
v 15.309572 56.370955 719.836923
v 6.491058 48.593712 750.952904
v -14.772578 61.819463 717.764894
v 12.196806 42.109138 740.578541
v -15.033955 52.220906 717.245998
v -11.921189 42.109138 742.138783
v 15.048194 52.224764 717.245998
v 13.753189 61.817534 717.245998
v -4.139275 48.335178 752.509592
v 1.821910 42.111068 753.291490
v 15.048194 58.186482 727.101465
v -14.772578 57.407021 728.398705
v -12.957788 43.147133 738.247064
v 11.418614 50.152633 743.432469
v -10.884591 49.890241 744.470260
v -6.993633 42.109138 750.174561
v 13.753189 44.443662 736.430929
v 8.047441 42.111068 749.140323
v 10.382016 59.224476 725.025882
v 3.119885 48.335178 752.769040
v -10.623213 58.446945 727.101465
v -14.772578 48.076644 729.432943
v -15.033955 61.557071 717.245998
v 15.048194 51.964301 717.505446
f 40 27 47 
f 23 24 30 
f 30 28 31 
f 23 30 31 
f 24 23 34 
f 23 31 34 
f 27 29 36 
f 29 22 36 
f 34 25 37 
f 22 29 38 
f 35 22 38 
f 32 35 38 
f 29 27 39 
f 33 32 39 
f 27 33 39 
f 38 29 39 
f 32 38 39 
f 24 34 40 
f 37 27 40 
f 34 37 40 
f 25 33 41 
f 33 27 41 
f 37 25 41 
f 27 37 41 
f 31 26 42 
f 34 31 42 
f 34 42 43 
f 32 33 43 
f 33 25 43 
f 25 34 43 
f 26 35 44 
f 35 32 44 
f 42 26 44 
f 43 42 44 
f 32 43 44 
f 22 35 45 
f 28 36 45 
f 36 22 45 
f 31 28 46 
f 26 31 46 
f 35 26 46 
f 28 45 46 
f 45 35 46 
f 30 24 47 
f 28 30 47 
f 27 36 47 
f 36 28 47 
f 24 40 47 
o convex_2
v -15.293343 54.298418 678.081089
v -22.814116 77.120900 682.748487
v -22.814116 77.120900 679.118145
v 10.122644 77.118666 672.895812
v 10.122644 54.559796 682.748487
v -12.180612 54.298418 669.782056
v -30.334889 55.857746 682.748487
v 10.122644 76.859523 682.748487
v -13.216861 77.118666 669.782056
v 10.122644 54.298418 672.895812
v -30.071841 76.600379 677.302974
v -30.071841 55.078082 677.302974
v -30.071841 74.524999 683.007427
v 10.122644 57.412606 683.008722
v -28.776531 54.562030 682.748487
v -30.071841 57.673983 683.007427
v 9.341472 77.118666 672.635577
f 57 53 64 
f 50 49 51 
f 51 49 55 
f 52 51 55 
f 52 48 57 
f 51 52 57 
f 48 53 57 
f 49 50 58 
f 50 56 58 
f 58 56 59 
f 56 53 59 
f 54 58 59 
f 55 49 60 
f 49 58 60 
f 58 54 60 
f 52 55 61 
f 55 60 61 
f 48 52 62 
f 53 48 62 
f 59 53 62 
f 54 59 62 
f 52 61 62 
f 54 62 63 
f 60 54 63 
f 61 60 63 
f 62 61 63 
f 50 51 64 
f 56 50 64 
f 53 56 64 
f 51 57 64 
o convex_3
v -20.478884 56.373799 696.751592
v -23.851072 74.268090 683.788741
v -23.071967 74.008540 684.566018
v 10.122644 57.411997 683.008722
v 10.122644 61.301583 697.013426
v -30.076045 57.671546 683.010092
v -19.959480 69.080756 697.013426
v 10.122644 63.116602 683.010092
v 10.122644 55.596978 697.013426
v -29.556642 74.008540 683.010092
v -15.292718 69.598027 696.492499
v -20.219182 55.596978 695.975685
v -18.401269 71.932145 690.268796
f 75 69 77 
f 67 66 71 
f 70 65 71 
f 66 67 72 
f 69 68 72 
f 68 69 73 
f 71 65 73 
f 69 71 73 
f 68 70 74 
f 71 66 74 
f 70 71 74 
f 66 72 74 
f 72 68 74 
f 67 71 75 
f 71 69 75 
f 65 70 76 
f 70 68 76 
f 68 73 76 
f 73 65 76 
f 72 67 77 
f 69 72 77 
f 67 75 77 
o convex_4
v -10.364375 63.632654 713.090516
v -19.961536 55.597765 697.013426
v -13.476074 55.336413 697.793521
v -15.031924 69.338833 697.013426
v 4.157677 61.298918 697.013426
v 4.157677 52.223647 717.240464
v -15.031924 52.226998 717.240464
v -15.031924 61.818270 717.240464
v 4.157677 58.189502 716.202977
v 4.157677 55.596089 697.013426
v -19.961536 69.079157 697.274778
v 4.157677 59.226533 712.831144
v -9.844971 62.077947 717.240464
f 83 86 90 
f 79 81 82 
f 79 80 84 
f 80 83 84 
f 84 83 85 
f 83 82 86 
f 80 79 87 
f 79 82 87 
f 83 80 87 
f 82 83 87 
f 81 79 88 
f 78 81 88 
f 79 84 88 
f 84 85 88 
f 85 78 88 
f 81 78 89 
f 82 81 89 
f 78 86 89 
f 86 82 89 
f 85 83 90 
f 78 85 90 
f 86 78 90 
o convex_5
v 4.157677 59.226533 712.831144
v 23.608656 62.595624 698.052893
v 23.608656 60.265238 698.052893
v 4.157677 55.596089 697.013426
v 15.048397 52.226998 717.240464
v 12.198151 69.338833 697.274778
v 15.048397 61.818270 717.240464
v 23.347812 55.596089 697.013426
v 4.157677 52.223647 717.240464
v 4.157677 61.298918 697.013426
v 9.863882 62.077947 717.240464
v 16.864787 69.080832 697.013426
v 18.940116 54.299383 712.053029
v 23.088872 63.372978 700.905983
v 10.122822 67.264773 702.980957
f 101 96 105 
f 92 93 98 
f 91 94 99 
f 95 97 99 
f 94 98 99 
f 98 95 99 
f 94 91 100 
f 98 94 100 
f 97 96 101 
f 91 99 101 
f 99 97 101 
f 96 97 102 
f 92 98 102 
f 100 96 102 
f 98 100 102 
f 97 95 103 
f 98 93 103 
f 95 98 103 
f 93 92 104 
f 92 102 104 
f 102 97 104 
f 103 93 104 
f 97 103 104 
f 100 91 105 
f 96 100 105 
f 91 101 105 
