o convex_0
v 6.813157 27.827731 652.919877
v -28.579439 -1.929762 652.919877
v -28.579439 -1.929762 654.046128
v 5.041011 -35.714585 656.136603
v -5.088728 35.714585 656.297638
v 27.883240 -6.593354 652.919877
v 27.564589 7.879862 656.136934
v -5.088728 -31.848069 652.920207
v -26.164401 -11.739387 656.136934
v -18.600639 21.877630 652.919877
v -26.164401 11.739387 656.136934
v 22.091622 18.332741 652.919877
v -5.088728 -35.707593 656.297638
v 5.041011 35.714585 656.297638
v 26.278805 -11.417760 656.136934
v 20.000826 -20.591122 652.919877
v -21.820688 -18.654368 652.919877
v -5.088728 32.812950 653.080911
v 5.041011 -32.812950 653.080911
v 5.041011 33.134577 653.241615
v 22.091622 18.332741 656.136934
v -26.969414 9.809625 652.919877
v 27.883240 6.593354 652.919877
v -28.579439 1.279516 656.136934
v 5.041011 -35.714585 656.297638
v 28.531722 -1.929762 656.136934
v -22.301460 18.011114 656.136934
v 22.091622 -18.332741 656.136934
v -21.496447 -18.975995 656.136934
v -5.088728 -33.938644 653.724389
v -26.969414 -9.809625 652.919877
v 24.668780 -14.634030 652.919877
v -5.088728 34.414093 654.206832
v -23.430713 16.563792 652.919877
v 25.473793 13.186709 652.919877
v 5.041011 31.848069 652.920207
v 5.041011 -34.421085 654.206832
v -28.093077 -5.467660 656.136934
v 5.041011 34.421085 654.206832
v 28.531722 2.733830 652.919877
v 20.000826 20.584130 652.919877
v -28.255198 4.824406 652.919877
v -18.600639 -21.877630 652.919877
v -27.612306 7.719049 656.136934
v 24.830901 14.312403 656.136934
v -24.878618 -14.312403 652.919877
v 5.041011 -31.848069 652.920207
v 28.369601 4.181151 656.136934
v -5.088728 31.841077 652.920207
v -5.088728 -34.903525 654.849648
v 27.564589 -7.879862 656.136934
v -24.073605 -15.598911 656.136934
v 28.531722 -2.726838 652.919877
v 26.759576 -10.292065 652.919877
v -5.088728 -32.812950 653.080911
v -21.820688 18.654368 655.815195
v 24.182418 -15.438098 656.136934
v 5.041011 35.225152 655.332421
v -21.820688 18.654368 652.919877
v -24.878618 14.312403 653.724389
v -28.255198 -4.824406 652.919877
v 22.091622 -18.332741 652.919877
v -5.088728 33.931652 653.724389
v -24.392256 15.116471 656.136934
f 34 60 64 
f 2 1 6 
f 1 2 10 
f 6 1 12 
f 5 13 14 
f 2 6 16 
f 2 16 17 
f 10 2 22 
f 6 12 23 
f 2 3 24 
f 13 5 24 
f 13 4 25 
f 14 13 25 
f 4 16 25 
f 14 25 26 
f 25 16 28 
f 17 13 29 
f 2 17 31 
f 16 6 32 
f 10 5 33 
f 10 22 34 
f 7 23 35 
f 23 12 35 
f 18 20 36 
f 16 4 37 
f 19 16 37 
f 30 19 37 
f 9 13 38 
f 24 3 38 
f 13 24 38 
f 31 9 38 
f 6 23 40 
f 12 1 41 
f 21 12 41 
f 14 21 41 
f 1 36 41 
f 36 20 41 
f 20 39 41 
f 22 2 42 
f 2 24 42 
f 13 17 43 
f 17 16 43 
f 5 11 44 
f 11 22 44 
f 24 5 44 
f 22 42 44 
f 42 24 44 
f 14 7 45 
f 12 21 45 
f 21 14 45 
f 7 35 45 
f 35 12 45 
f 9 31 46 
f 31 17 46 
f 19 8 47 
f 16 19 47 
f 8 43 47 
f 43 16 47 
f 7 14 48 
f 23 7 48 
f 14 26 48 
f 40 23 48 
f 26 40 48 
f 1 10 49 
f 10 18 49 
f 36 1 49 
f 18 36 49 
f 4 13 50 
f 37 4 50 
f 30 37 50 
f 13 43 50 
f 43 30 50 
f 25 15 51 
f 26 25 51 
f 13 9 52 
f 29 13 52 
f 17 29 52 
f 9 46 52 
f 46 17 52 
f 6 40 53 
f 40 26 53 
f 51 6 53 
f 26 51 53 
f 32 6 54 
f 15 32 54 
f 6 51 54 
f 51 15 54 
f 8 19 55 
f 19 30 55 
f 43 8 55 
f 30 43 55 
f 27 5 56 
f 34 27 56 
f 15 25 57 
f 25 28 57 
f 32 15 57 
f 5 14 58 
f 33 5 58 
f 39 33 58 
f 14 41 58 
f 41 39 58 
f 5 10 59 
f 10 34 59 
f 56 5 59 
f 34 56 59 
f 22 11 60 
f 34 22 60 
f 3 2 61 
f 2 31 61 
f 38 3 61 
f 31 38 61 
f 28 16 62 
f 16 32 62 
f 57 28 62 
f 32 57 62 
f 18 10 63 
f 20 18 63 
f 10 33 63 
f 39 20 63 
f 33 39 63 
f 11 5 64 
f 5 27 64 
f 27 34 64 
f 60 11 64 
o convex_1
v 4.882040 84.138414 664.342471
v -5.091469 -84.138414 664.342471
v 5.043752 -84.138414 664.342471
v -5.091469 -84.138414 669.006740
v 5.043752 84.121942 669.006740
v -5.091469 84.138414 669.006740
v 5.043752 -84.138414 669.006740
v -5.091469 84.138414 664.342471
v 5.043752 40.372602 664.181390
v -5.091469 -40.372602 664.181390
v 5.043752 -40.372602 664.181390
v -5.091469 40.372602 664.181390
v 5.043752 84.121942 664.341999
f 73 76 77 
f 66 67 68 
f 66 68 70 
f 69 65 70 
f 68 69 70 
f 68 67 71 
f 69 68 71 
f 67 69 71 
f 66 70 72 
f 70 65 72 
f 69 67 73 
f 67 66 74 
f 66 72 74 
f 73 67 75 
f 74 73 75 
f 67 74 75 
f 74 72 76 
f 73 74 76 
f 65 69 77 
f 72 65 77 
f 69 73 77 
f 76 72 77 
o convex_2
v -5.090870 -40.056896 663.697154
v 5.043752 -32.014425 656.620477
v 5.043752 -35.554590 662.731942
v 5.043752 -36.357713 657.263952
v -5.090870 -32.014425 656.299512
v -5.090870 -36.357713 664.018891
v 5.043752 -40.219127 664.180917
v -5.090870 -35.716018 656.299512
v 5.043752 -36.517534 664.180917
v 5.043752 -35.716018 656.299512
v -5.090870 -40.219127 664.180917
v -5.090870 -32.014425 656.620477
v 5.043752 -32.014425 656.299512
v 5.043752 -40.056896 663.697154
f 84 78 91 
f 79 80 81 
f 82 78 83 
f 81 80 84 
f 81 78 85 
f 78 82 85 
f 80 83 86 
f 84 80 86 
f 79 81 87 
f 81 85 87 
f 85 82 87 
f 83 78 88 
f 78 84 88 
f 86 83 88 
f 84 86 88 
f 80 79 89 
f 79 82 89 
f 82 83 89 
f 83 80 89 
f 82 79 90 
f 79 87 90 
f 87 82 90 
f 78 81 91 
f 81 84 91 
o convex_3
v -5.090870 35.716018 656.299512
v 5.043752 40.219127 664.180917
v 5.043752 36.517534 664.180917
v -5.090870 36.517534 664.180917
v 5.043752 32.014425 656.299512
v -5.090870 32.014425 656.620477
v -5.090870 40.219127 664.018891
v 5.043752 35.875839 656.459994
v 5.043752 35.554590 662.731942
v -5.090870 32.014425 656.299512
v 5.043752 32.014425 656.620477
v 5.043752 40.056896 663.697154
v -5.090870 36.357713 657.263952
v -5.090870 36.036464 663.536671
f 97 100 105 
f 94 93 95 
f 93 94 96 
f 95 92 97 
f 95 93 98 
f 92 95 98 
f 96 92 99 
f 93 96 99 
f 96 94 100 
f 92 96 101 
f 96 97 101 
f 97 92 101 
f 97 96 102 
f 96 100 102 
f 100 97 102 
f 98 93 103 
f 93 99 103 
f 103 99 104 
f 92 98 104 
f 99 92 104 
f 98 103 104 
f 94 95 105 
f 95 97 105 
f 100 94 105 
