o convex_0
v -37.282243 35.233273 394.289805
v 19.985897 34.950933 434.907068
v 19.985897 34.668594 434.907068
v 9.262698 35.515170 372.567488
v -12.735504 39.182489 436.877064
v 6.725538 39.182489 372.279515
v -34.460648 38.900149 372.279515
v -23.458703 34.668594 437.727893
v -37.282243 34.668594 372.279515
v 12.931909 39.182489 436.595636
v 10.389061 34.668594 373.974628
v -33.334286 38.335471 394.571233
v 15.469069 34.668594 439.141578
v 18.853846 35.515612 418.263546
v -31.923488 39.182489 383.569361
v -19.789492 37.489778 436.032780
v 14.905888 38.335912 423.905196
v -12.735504 37.489778 438.853605
v -24.585066 34.950933 436.314208
v -38.129860 34.668594 390.618151
v 10.110314 36.644086 374.544029
v 19.138281 34.668594 415.724148
v 12.647474 37.489778 438.853605
v -37.282243 36.644086 388.085299
v -19.226310 34.668594 439.141578
v 8.699517 34.668594 372.279515
v -31.354618 39.182489 372.279515
v -36.997809 36.925541 372.279515
v -31.639053 38.900149 394.008377
v -35.587011 36.925541 394.852661
v -17.252332 38.335912 436.314208
v 12.931909 39.182489 422.491511
v -35.308265 38.335471 385.545902
v 16.595432 37.207439 419.670686
f 6 17 34 
f 7 6 9 
f 3 8 9 
f 6 5 10 
f 3 9 11 
f 3 2 13 
f 8 3 13 
f 5 6 15 
f 10 2 17 
f 8 16 19 
f 16 12 19 
f 9 8 20 
f 19 1 20 
f 8 19 20 
f 4 6 21 
f 11 4 21 
f 6 14 21 
f 21 14 22 
f 2 3 22 
f 3 11 22 
f 14 2 22 
f 11 21 22 
f 2 10 23 
f 10 5 23 
f 13 2 23 
f 5 18 23 
f 18 13 23 
f 20 1 24 
f 8 13 25 
f 18 8 25 
f 13 18 25 
f 6 4 26 
f 9 6 26 
f 4 11 26 
f 11 9 26 
f 6 7 27 
f 15 6 27 
f 7 15 27 
f 7 9 28 
f 9 20 28 
f 20 24 28 
f 5 15 29 
f 1 19 30 
f 19 12 30 
f 24 1 30 
f 16 8 31 
f 12 16 31 
f 18 5 31 
f 8 18 31 
f 29 12 31 
f 5 29 31 
f 6 10 32 
f 10 17 32 
f 17 6 32 
f 15 7 33 
f 7 28 33 
f 28 24 33 
f 12 29 33 
f 29 15 33 
f 30 12 33 
f 24 30 33 
f 2 14 34 
f 14 6 34 
f 17 2 34 
o convex_1
v -35.586923 -38.399549 363.526720
v 28.730905 -35.861422 343.785915
v 28.444150 -35.861422 346.894547
v 28.444150 -39.246070 346.894547
v -7.660903 -39.246429 314.732414
v -21.483794 -35.861422 323.200302
v -37.848377 -35.578889 381.307304
v 2.492829 -39.246429 381.307304
v 9.264155 -35.578889 381.307304
v 14.901497 -35.861422 317.834446
v -31.077050 -39.246429 381.307304
v 21.959578 -39.246070 323.761307
v -25.713429 -39.246429 329.404366
v -37.001146 -35.578889 363.526720
v -3.151030 -35.861422 313.881005
v 23.654039 -39.246070 359.018873
v 8.697163 -39.246429 315.016217
v 26.469451 -35.861422 331.093984
v -28.255121 -35.578889 342.380101
v 28.163912 -39.246070 336.459839
v -27.121135 -35.861422 332.790201
v 25.061745 -35.861422 356.755050
v 12.366322 -35.578889 368.041167
v -14.992705 -39.246429 317.834446
v -33.612224 -39.246429 364.094326
v -35.306685 -38.399549 381.307304
v -11.043308 -35.861422 315.861026
v 6.442226 -38.117375 381.307304
v -27.407890 -39.246429 333.635010
v 6.442226 -35.861422 314.455211
v 21.959578 -35.861422 323.761307
v 3.053304 -39.246429 313.881005
v -36.714391 -37.272290 363.810523
v 16.315720 -39.246070 318.679255
f 65 46 68 
f 36 37 38 
f 41 42 43 
f 39 42 45 
f 42 41 45 
f 39 45 47 
f 41 43 48 
f 42 38 50 
f 38 42 51 
f 42 39 51 
f 48 43 53 
f 36 38 54 
f 38 51 54 
f 51 46 54 
f 52 36 54 
f 46 52 54 
f 40 47 55 
f 48 53 55 
f 53 40 55 
f 38 37 56 
f 37 43 56 
f 50 38 56 
f 43 50 56 
f 37 36 57 
f 43 37 57 
f 36 52 57 
f 53 43 57 
f 44 53 57 
f 39 47 58 
f 47 40 58 
f 47 45 59 
f 45 41 60 
f 35 59 60 
f 59 45 60 
f 49 39 61 
f 40 53 61 
f 53 49 61 
f 39 58 61 
f 58 40 61 
f 43 42 62 
f 42 50 62 
f 50 43 62 
f 55 47 63 
f 48 55 63 
f 59 35 63 
f 47 59 63 
f 44 51 64 
f 53 44 64 
f 49 53 64 
f 52 46 65 
f 57 52 65 
f 44 57 65 
f 39 49 66 
f 51 39 66 
f 64 51 66 
f 49 64 66 
f 41 48 67 
f 35 60 67 
f 60 41 67 
f 63 35 67 
f 48 63 67 
f 46 51 68 
f 51 44 68 
f 44 65 68 
o convex_2
v -34.179374 -38.399549 391.186005
v 18.857423 -35.579248 434.340926
v 18.574338 -35.579248 436.599723
v 12.929292 -39.246429 436.316666
v 5.030667 -38.682081 381.307304
v -36.999122 -35.578889 393.722199
v -22.328661 -35.861422 437.443234
v 9.260289 -35.578889 381.307304
v -13.580781 -39.246429 435.744890
v -31.076541 -39.246429 381.307304
v -37.848377 -35.578889 381.307304
v 11.802503 -39.246429 416.004472
v -16.689165 -35.578889 439.141578
v 18.291254 -35.861422 417.419759
v 2.494003 -39.246429 381.307304
v 12.646207 -37.835561 438.575463
v -18.659658 -37.835561 436.599723
v -13.303247 -38.682081 437.720630
v 14.056081 -35.578889 439.141578
v -33.613204 -38.963896 384.415274
v 16.032125 -37.553387 419.955952
v 7.289795 -37.553028 381.307304
v -36.155418 -37.272290 390.902948
v -23.177916 -35.861422 436.033609
v 14.905336 -37.553387 412.902164
v -23.177916 -35.578889 436.033609
v -31.359626 -38.963896 393.722199
v -35.306163 -38.399549 381.307304
f 91 79 96 
f 70 71 72 
f 76 73 78 
f 72 77 78 
f 74 76 79 
f 76 78 79 
f 72 78 80 
f 76 74 81 
f 76 70 82 
f 78 73 83 
f 73 80 83 
f 80 78 83 
f 72 71 84 
f 77 72 86 
f 81 75 86 
f 72 84 86 
f 84 81 86 
f 75 85 86 
f 85 77 86 
f 71 70 87 
f 70 76 87 
f 76 81 87 
f 84 71 87 
f 81 84 87 
f 70 72 89 
f 72 80 89 
f 82 70 89 
f 73 76 90 
f 76 82 90 
f 74 79 91 
f 69 85 92 
f 85 75 92 
f 91 69 92 
f 74 91 92 
f 80 73 93 
f 89 80 93 
f 82 89 93 
f 90 82 93 
f 73 90 93 
f 81 74 94 
f 75 81 94 
f 74 92 94 
f 92 75 94 
f 78 77 95 
f 85 69 95 
f 77 85 95 
f 69 88 95 
f 88 78 95 
f 79 78 96 
f 88 69 96 
f 78 88 96 
f 69 91 96 
o convex_3
v 27.038581 38.900149 352.528382
v -3.143670 35.797510 313.881005
v -5.116952 35.797510 314.170359
v -20.920029 34.668594 361.554349
v -28.538469 39.182489 338.704746
v 28.445666 35.797510 346.885987
v 12.928491 39.182047 316.704536
v -28.538469 39.182489 361.559016
v -28.538469 34.668594 342.373003
v 21.673720 35.797510 361.559016
v 23.086410 35.797510 325.170464
v -17.814352 39.182489 319.808087
v 21.673720 39.182047 361.559016
v 27.599173 39.182047 334.196430
v -22.613016 35.797068 324.605757
v -28.538469 34.668594 361.559016
v 12.367899 35.797510 316.424517
v -3.143670 39.182047 313.881005
v 27.599173 35.797510 334.196430
v 21.959621 39.182047 323.761031
v -14.994576 35.797068 317.833949
v -25.713087 39.182489 329.398760
v -27.125778 35.797068 332.786998
v 28.731568 39.182047 343.782436
v 5.029755 35.797510 314.170359
v -11.042406 39.182047 315.859810
v 25.059693 35.797510 356.756679
v 18.853944 35.797510 320.657480
v 6.442446 39.182047 314.450378
f 121 114 125 
f 99 98 105 
f 104 101 105 
f 101 104 108 
f 104 106 109 
f 105 100 112 
f 104 105 112 
f 100 106 112 
f 106 104 112 
f 98 99 114 
f 102 100 115 
f 100 105 115 
f 105 107 115 
f 107 110 115 
f 103 108 116 
f 108 110 116 
f 110 107 116 
f 99 105 117 
f 105 111 117 
f 111 108 117 
f 101 108 118 
f 108 111 118 
f 118 111 119 
f 105 101 119 
f 111 105 119 
f 101 118 119 
f 97 102 120 
f 108 104 120 
f 109 97 120 
f 104 109 120 
f 110 108 120 
f 102 115 120 
f 115 110 120 
f 105 98 121 
f 113 105 121 
f 98 114 121 
f 114 99 122 
f 108 114 122 
f 99 117 122 
f 117 108 122 
f 102 97 123 
f 100 102 123 
f 106 100 123 
f 97 109 123 
f 109 106 123 
f 107 105 124 
f 113 103 124 
f 105 113 124 
f 103 116 124 
f 116 107 124 
f 108 103 125 
f 103 113 125 
f 114 108 125 
f 113 121 125 
o convex_4
v 14.905777 39.182489 367.199451
v -28.817495 34.668594 361.559016
v -35.871118 34.668594 362.406918
v 7.007788 34.668594 372.279515
v -34.458095 38.900149 372.279515
v -28.817495 39.182489 361.559016
v 21.396489 35.797068 361.559016
v -37.284140 34.668594 372.279515
v 7.007788 39.182489 372.279515
v 21.396489 39.182489 361.559016
v -35.871118 38.335912 364.098523
v 12.366933 34.668594 368.046303
v -31.356339 39.182489 372.279515
v 17.726078 35.797068 365.226610
f 137 132 139 
f 128 127 129 
f 127 128 131 
f 127 131 132 
f 128 129 133 
f 129 130 133 
f 129 126 134 
f 130 129 134 
f 126 131 134 
f 131 126 135 
f 132 131 135 
f 131 128 136 
f 130 131 136 
f 128 133 136 
f 133 130 136 
f 129 127 137 
f 127 132 137 
f 131 130 138 
f 130 134 138 
f 134 131 138 
f 126 129 139 
f 135 126 139 
f 132 135 139 
f 129 137 139 
o convex_5
v -39.540065 -10.462509 438.848829
v -28.536867 -35.572013 360.438247
v -21.770389 -35.572013 360.438247
v -28.536867 34.654843 360.438247
v -14.150430 34.668594 439.141578
v -14.153219 -35.572013 439.141578
v -14.150430 34.668594 366.932658
v -38.692163 33.527253 385.830394
v -37.001938 -35.572013 363.535226
v -14.153219 -35.572013 366.924955
v -42.078192 7.578931 436.029191
v -37.565347 -35.572013 392.032057
v -42.644389 -4.260764 396.269217
v -37.001938 34.654843 363.542930
v -30.793290 29.298790 437.161668
v -27.976248 -32.182368 436.876623
v -41.233079 -11.315077 436.029191
v -37.565347 34.654843 394.289308
v -21.767600 34.654843 360.438247
v -42.078192 12.096167 394.851694
v -37.847051 18.579810 437.724055
v -40.951375 -21.188365 392.602147
v -24.590220 34.654843 437.153965
v -36.154037 -22.590977 436.591578
v -37.847051 13.498779 439.141578
v -42.644389 -2.851276 436.314236
v -23.460614 -35.572013 436.591578
v -35.872333 34.654843 362.410453
v -42.078192 4.196161 391.469670
v -29.948177 -26.826315 439.141578
v -38.692163 -33.598731 387.517555
v -35.872333 -35.572013 362.410453
v -25.719826 30.990175 439.141578
v -40.385178 14.069450 435.751850
v -37.283643 -31.618573 364.105317
v -40.385178 24.788430 392.032057
v -36.435741 22.244477 436.314236
v -37.283643 31.553970 364.105317
v -42.644389 5.323751 397.671332
v -38.692163 -18.080617 436.314236
v -31.641192 -28.517700 436.876623
v -42.078192 -12.160769 394.859398
v -42.644389 3.632366 435.751850
v -41.514784 3.914264 438.294146
v -38.410459 34.654843 388.079942
v -42.078192 -7.643534 436.029191
v -22.897206 -33.873753 438.848829
v -27.976248 32.399663 436.306532
v -38.976657 17.459095 436.314236
v -34.179318 25.634123 436.314236
v -41.514784 17.170322 394.289308
v -38.128755 -35.001343 390.337193
v -40.103474 -2.844401 439.133874
v -42.078192 -6.234046 391.747011
v -35.872333 -21.181489 438.286442
v -37.001938 -35.572013 394.574353
v -39.821769 -27.960781 390.907283
v -33.897614 23.653965 438.563783
v -37.283643 34.372945 365.230090
f 190 175 198 
f 142 141 143 
f 141 142 145 
f 144 145 146 
f 141 145 148 
f 145 142 149 
f 146 145 149 
f 148 145 151 
f 142 143 158 
f 143 146 158 
f 149 142 158 
f 146 149 158 
f 144 157 162 
f 145 144 164 
f 151 145 166 
f 143 141 167 
f 146 143 167 
f 153 146 167 
f 148 153 167 
f 145 164 169 
f 141 148 171 
f 167 141 171 
f 148 167 171 
f 144 162 172 
f 162 154 172 
f 164 144 172 
f 150 160 173 
f 153 148 177 
f 148 174 177 
f 174 168 177 
f 152 165 178 
f 168 152 178 
f 159 168 178 
f 140 156 179 
f 151 163 179 
f 155 169 180 
f 148 161 181 
f 165 152 181 
f 159 178 182 
f 178 165 182 
f 160 150 183 
f 164 160 183 
f 150 182 183 
f 182 165 183 
f 144 146 184 
f 146 153 184 
f 157 144 184 
f 150 173 184 
f 147 175 184 
f 175 150 184 
f 156 140 185 
f 140 165 185 
f 181 161 185 
f 165 181 185 
f 166 145 186 
f 155 166 186 
f 169 155 186 
f 145 169 186 
f 157 154 187 
f 154 162 187 
f 162 157 187 
f 173 160 188 
f 176 157 188 
f 160 176 188 
f 157 184 188 
f 184 173 188 
f 154 157 189 
f 157 176 189 
f 150 175 190 
f 182 150 190 
f 159 182 190 
f 148 151 191 
f 170 148 191 
f 156 170 191 
f 151 179 191 
f 179 156 191 
f 165 140 192 
f 140 169 192 
f 169 164 192 
f 164 183 192 
f 183 165 192 
f 152 168 193 
f 174 148 193 
f 168 174 193 
f 148 181 193 
f 181 152 193 
f 169 140 194 
f 140 179 194 
f 179 163 194 
f 163 180 194 
f 180 169 194 
f 163 151 195 
f 151 166 195 
f 166 155 195 
f 155 180 195 
f 180 163 195 
f 161 148 196 
f 148 170 196 
f 170 156 196 
f 156 185 196 
f 185 161 196 
f 160 164 197 
f 172 154 197 
f 164 172 197 
f 176 160 197 
f 154 189 197 
f 189 176 197 
f 168 159 198 
f 175 147 198 
f 153 177 198 
f 177 168 198 
f 184 153 198 
f 147 184 198 
f 159 190 198 
o convex_6
v 30.985091 -9.057301 438.289562
v 16.031600 34.661718 439.135973
v 17.163885 34.661718 438.855704
v -14.150430 -35.572013 381.877147
v -14.150430 -35.572013 439.135973
v -14.150430 34.661718 381.877147
v 31.548941 2.219703 388.648431
v -14.150430 34.661718 439.135973
v 18.855435 -35.572013 419.107996
v 10.108881 34.661718 381.877147
v 10.108881 -34.726238 381.877147
v 27.601989 24.794339 427.566495
v 15.467750 -35.001287 439.135973
v 29.857390 -12.158477 392.314341
v 27.038139 -25.986560 436.310868
v 31.833158 10.402407 436.316473
v 22.238536 29.580190 406.137176
v 30.421240 10.684332 391.748199
v 32.681225 -2.002298 391.753804
v 16.031600 6.173530 381.877147
v 23.370821 -28.798935 408.962281
v 20.267353 34.661718 422.488032
v 31.833158 -10.748852 435.750331
v 25.905855 22.532062 439.135973
v 25.062371 29.305141 436.316473
v 29.857390 -4.257698 387.521752
v 19.135068 -35.572013 436.030599
v 32.681225 -2.566148 436.316473
v 28.729690 -21.468882 425.027264
v 9.265398 -35.572013 381.877147
v 18.855435 -30.779287 396.826661
v 32.397008 4.193178 391.753804
v 27.038139 17.739336 393.160751
v 26.190072 -21.750807 439.135973
v 25.342005 -28.523886 421.927495
v 25.626222 27.324789 417.409570
v 29.857390 18.867036 435.750331
v 15.188117 -13.850028 381.877147
v 31.833158 -6.801901 392.314341
v 25.342005 -20.059257 392.600215
v 29.857390 1.373927 387.235878
v 29.857390 6.448579 439.135973
v 18.291585 31.271740 396.546393
v 32.681225 3.347403 435.750331
v 29.009323 -11.876552 389.775109
v 23.086604 -31.618186 436.882615
v 30.421240 -16.958080 435.750331
v 20.267353 34.661718 435.750331
v 18.571218 34.661718 411.210033
v 29.293540 10.966257 389.489236
v 19.983136 -33.591661 412.336712
v 30.705458 14.913208 423.900585
v 22.522754 -32.470837 423.620316
v 14.060416 20.276661 381.877147
v 23.650454 30.996692 422.213369
v 25.905855 -26.832335 417.409570
v 29.577757 6.455455 387.802020
v 28.729690 19.712811 438.009294
v 23.370821 23.377838 393.726893
v 26.753922 -24.288133 438.289562
v 30.421240 -6.795024 388.648431
v 31.548941 4.193178 438.289562
v 23.086604 30.144040 438.289562
v 27.317772 -25.133908 424.466727
f 233 254 262 
f 200 201 204 
f 202 203 204 
f 203 200 206 
f 200 204 206 
f 204 203 206 
f 203 202 207 
f 204 201 208 
f 202 204 208 
f 202 208 209 
f 200 203 211 
f 209 208 218 
f 208 201 220 
f 201 200 222 
f 200 211 222 
f 203 207 225 
f 211 203 225 
f 199 221 226 
f 221 217 226 
f 207 202 228 
f 202 209 228 
f 228 209 229 
f 217 205 230 
f 222 211 232 
f 210 216 234 
f 231 215 234 
f 216 231 234 
f 210 223 235 
f 209 218 236 
f 224 209 236 
f 217 221 237 
f 227 212 237 
f 212 219 238 
f 229 209 238 
f 219 229 238 
f 205 224 239 
f 236 218 239 
f 224 236 239 
f 232 199 240 
f 222 232 240 
f 226 217 242 
f 230 214 242 
f 217 230 242 
f 237 212 243 
f 238 209 243 
f 212 238 243 
f 211 225 244 
f 233 213 244 
f 221 199 245 
f 213 227 245 
f 237 221 245 
f 227 237 245 
f 220 201 246 
f 208 220 247 
f 241 208 247 
f 215 241 247 
f 216 230 248 
f 230 205 248 
f 208 231 248 
f 231 216 248 
f 207 228 249 
f 229 219 249 
f 228 229 249 
f 216 210 250 
f 214 230 250 
f 230 216 250 
f 210 235 250 
f 235 214 250 
f 225 207 251 
f 219 233 251 
f 244 225 251 
f 233 244 251 
f 207 249 251 
f 249 219 251 
f 218 208 252 
f 208 239 252 
f 239 218 252 
f 223 210 253 
f 210 234 253 
f 234 215 253 
f 220 246 253 
f 246 223 253 
f 247 220 253 
f 215 247 253 
f 219 212 254 
f 233 219 254 
f 205 239 255 
f 239 208 255 
f 248 205 255 
f 208 248 255 
f 214 235 256 
f 235 223 256 
f 222 240 256 
f 231 208 257 
f 215 231 257 
f 208 241 257 
f 241 215 257 
f 199 232 258 
f 232 211 258 
f 211 244 258 
f 244 213 258 
f 245 199 258 
f 213 245 258 
f 205 217 259 
f 209 224 259 
f 224 205 259 
f 217 237 259 
f 243 209 259 
f 237 243 259 
f 199 226 260 
f 240 199 260 
f 242 214 260 
f 226 242 260 
f 214 256 260 
f 256 240 260 
f 201 222 261 
f 246 201 261 
f 223 246 261 
f 222 256 261 
f 256 223 261 
f 212 227 262 
f 227 213 262 
f 213 233 262 
f 254 212 262 
o convex_7
v -28.538469 -35.578889 342.376842
v -26.846090 34.661718 351.966990
v -26.846090 34.661718 351.119227
v -26.846090 -35.565138 351.966990
v -28.538138 34.661718 351.966990
v -28.256157 34.661718 342.376842
v -28.538469 -35.578889 351.966990
v -28.256323 -35.578889 342.376842
v -28.538138 34.661718 342.376842
v -26.846090 -35.565138 351.119227
f 270 268 272 
f 265 264 266 
f 264 265 267 
f 266 264 267 
f 267 265 268 
f 267 263 269 
f 266 267 269 
f 263 268 270 
f 269 263 270 
f 266 269 270 
f 263 267 271 
f 268 263 271 
f 267 268 271 
f 265 266 272 
f 268 265 272 
f 266 270 272 
o convex_8
v -26.563168 -35.572013 351.967818
v -22.050464 34.661718 360.429714
v -22.050464 34.661718 360.148065
v -28.538469 34.661718 351.967818
v -28.538469 -35.572013 360.429714
v -22.050464 -35.572013 360.429714
v -28.538469 34.661718 360.429714
v -28.538469 -35.572013 351.967818
v -26.563168 34.661718 351.967818
v -22.332468 -35.572013 359.583939
f 281 275 282 
f 274 275 276 
f 274 277 278 
f 275 274 278 
f 277 273 278 
f 274 276 279 
f 276 277 279 
f 277 274 279 
f 276 273 280 
f 273 277 280 
f 277 276 280 
f 276 275 281 
f 273 276 281 
f 278 273 282 
f 275 278 282 
f 273 281 282 
o convex_9
v -14.150430 -35.572013 367.201384
v -9.353755 34.661718 381.871541
v -1.172984 34.661718 381.870105
v -9.071747 -35.572013 381.871541
v -1.172984 -35.572013 370.868923
v -13.585144 34.661718 367.201384
v -14.149160 34.661718 381.871541
v -1.172984 34.661718 370.868923
v -1.172984 -35.572013 381.870105
v -14.150430 -35.572013 381.871541
v -14.149160 34.661718 367.201384
v -13.585144 -35.572013 367.201384
f 288 290 294 
f 285 284 286 
f 286 283 287 
f 284 285 288 
f 286 284 289 
f 284 288 289 
f 285 287 290 
f 288 285 290 
f 285 286 291 
f 286 287 291 
f 287 285 291 
f 283 286 292 
f 289 283 292 
f 286 289 292 
f 288 283 293 
f 283 289 293 
f 289 288 293 
f 287 283 294 
f 283 288 294 
f 290 287 294 
o convex_10
v 12.086152 34.661718 368.612341
v 4.470158 -35.572013 370.304490
v 11.803935 -35.572013 368.047960
v 8.982538 -35.572013 370.586556
v 4.470158 34.661718 370.304490
v 8.982538 34.661718 370.586556
v 11.803935 34.661718 368.047960
v 11.803935 -35.572013 368.894407
v 4.470158 34.661718 370.586556
v 4.470158 -35.572013 370.586556
f 298 303 304 
f 296 297 298 
f 297 296 299 
f 295 299 300 
f 295 297 301 
f 299 295 301 
f 297 299 301 
f 297 295 302 
f 298 297 302 
f 300 298 302 
f 295 300 302 
f 299 296 303 
f 300 299 303 
f 298 300 303 
f 296 298 304 
f 303 296 304 
o convex_11
v 14.342424 17.734116 381.871541
v -1.172984 -35.578889 370.869586
v 2.213763 -35.565138 370.586805
v -1.172984 34.661718 370.869586
v -1.172984 -35.578889 381.870437
v -1.172984 34.661718 381.870437
v 8.700608 34.661718 370.586805
v 10.392325 -35.283241 373.973551
v 10.392325 -34.155651 381.870437
v 15.754121 -6.515944 381.588760
v 10.110648 34.661718 381.870437
v 8.700608 -35.565138 370.586805
v 11.804021 7.578931 373.691875
v 10.675658 33.527252 374.256333
v 15.754121 6.451341 381.588760
v 11.522345 -18.080618 373.691875
v 14.342424 -17.798720 381.871541
v 9.547295 -35.565138 381.870437
v 2.213763 34.661718 370.586805
v 11.239011 23.942737 373.691875
f 318 319 324 
f 307 306 308 
f 308 306 309 
f 309 305 310 
f 308 309 310 
f 308 310 311 
f 310 305 315 
f 311 310 315 
f 306 307 316 
f 307 311 316 
f 316 311 317 
f 315 305 318 
f 311 315 318 
f 305 314 319 
f 314 317 319 
f 318 305 319 
f 314 312 320 
f 312 316 320 
f 317 314 320 
f 316 317 320 
f 305 309 321 
f 313 312 321 
f 312 314 321 
f 314 305 321 
f 309 306 322 
f 312 313 322 
f 306 316 322 
f 316 312 322 
f 321 309 322 
f 313 321 322 
f 307 308 323 
f 311 307 323 
f 308 311 323 
f 317 311 324 
f 311 318 324 
f 319 317 324 
