o convex_0
v 21.828710 27.388495 189.318658
v -27.796127 -32.237147 173.762951
v -27.056469 -32.607195 173.762951
v 17.384603 29.615633 173.762951
v -27.796127 31.835919 189.318658
v 22.198539 -27.789722 189.318658
v 29.607439 -20.381916 173.762951
v -27.796127 31.835919 172.650198
v -27.796127 -31.490199 189.318658
v 35.161032 2.574744 189.318658
v 34.051546 9.242454 173.762951
v 10.345531 -33.717338 173.762951
v 5.901424 34.803153 189.318658
v 7.756731 -34.457433 189.318658
v -20.017398 34.803153 173.762951
v 7.756731 34.426253 173.762951
v -15.203462 -35.204381 180.059309
v 32.942060 -13.344158 188.576279
v 34.791203 -4.826209 173.762951
v 31.462746 16.650260 189.318658
v 26.272817 24.428114 173.762951
v -18.168255 34.803153 189.317027
v -21.502876 -34.457433 189.318658
v -7.794562 -35.204381 173.762951
v -27.426298 21.090832 172.650198
v 19.609738 29.615633 189.318658
v 12.200838 -33.347290 173.762951
v -27.796127 -21.492059 173.392577
v 31.832574 -15.194397 189.318658
v 35.161032 1.457748 173.762951
v 4.052281 -34.827481 186.354035
v 24.423674 26.278352 177.466691
v 6.641081 34.803153 180.431315
v -26.316812 32.205967 172.650198
v -20.017398 -34.820628 188.205905
v -12.984491 -35.204381 173.762951
v -27.796127 32.205967 186.722777
v 27.018638 -22.609055 173.762951
v 35.161032 0.354458 188.946653
v 18.124260 30.348876 186.724409
v 29.607439 -20.381916 175.985195
f 18 29 41 
f 1 5 6 
f 2 5 8 
f 2 3 9 
f 5 2 9 
f 6 5 9 
f 1 6 10 
f 5 1 13 
f 6 9 14 
f 18 7 19 
f 1 10 20 
f 10 11 20 
f 20 11 21 
f 5 13 22 
f 13 15 22 
f 9 3 23 
f 14 9 23 
f 19 7 25 
f 13 1 26 
f 6 14 27 
f 14 12 27 
f 25 27 28 
f 3 2 28 
f 2 8 28 
f 12 24 28 
f 8 25 28 
f 27 12 28 
f 10 6 29 
f 11 10 30 
f 12 14 31 
f 24 12 31 
f 17 24 31 
f 1 20 32 
f 20 21 32 
f 21 4 32 
f 26 1 32 
f 15 13 33 
f 16 15 33 
f 8 15 34 
f 15 16 34 
f 16 4 34 
f 21 11 34 
f 4 21 34 
f 25 8 34 
f 19 25 34 
f 11 30 34 
f 30 19 34 
f 3 17 35 
f 23 3 35 
f 14 23 35 
f 31 14 35 
f 17 31 35 
f 17 3 36 
f 24 17 36 
f 3 28 36 
f 28 24 36 
f 8 5 37 
f 15 8 37 
f 5 22 37 
f 22 15 37 
f 7 6 38 
f 25 7 38 
f 6 27 38 
f 27 25 38 
f 18 19 39 
f 10 29 39 
f 29 18 39 
f 30 10 39 
f 19 30 39 
f 4 16 40 
f 13 26 40 
f 32 4 40 
f 26 32 40 
f 33 13 40 
f 16 33 40 
f 6 7 41 
f 7 18 41 
f 29 6 41 
o convex_1
v -45.950833 -3.342792 85.612277
v -28.174695 32.949797 165.603376
v -28.174695 44.060364 145.228711
v -28.172701 -45.933297 104.497434
v -48.543269 -4.828059 165.603376
v -28.174695 24.057486 79.690354
v -48.543269 35.168052 121.902111
v -28.172701 -32.980614 165.603376
v -48.543269 -33.713603 130.414876
v -33.730486 -21.484264 78.209873
v -48.543269 -22.979175 95.984670
v -33.730486 46.278619 105.246702
v -48.543269 16.274302 92.274441
v -41.505801 22.938713 165.603376
v -33.730486 -49.270325 128.564275
v -28.174695 -6.679820 73.759403
v -41.136878 -23.345670 165.603376
v -33.730486 43.684225 146.709191
v -33.730486 -47.042425 107.097303
v -33.730486 19.244836 77.099513
v -48.543269 26.642236 145.968951
v -28.174695 48.873014 114.878855
v -34.099410 49.249153 126.713674
v -33.730486 -42.972409 147.819552
v -33.730486 36.653319 89.322506
v -48.543269 28.493997 102.646833
v -28.172701 -47.052070 138.196427
v -33.730486 -37.040986 89.692627
v -48.543269 -33.713603 114.129587
v -33.730486 -1.481386 73.389283
v -28.174695 -24.454797 79.681327
v -47.432510 12.946919 165.603376
v -48.543269 -25.197431 147.079312
v -28.174695 43.317730 98.575511
v -48.543269 -1.491031 88.203118
v -28.174695 12.204286 74.878791
v -28.172701 -48.903831 116.359335
v -46.692669 -14.453359 165.603376
v -33.730486 -31.485703 165.603376
v -33.359568 31.464530 165.603376
v -28.543619 48.873014 131.155116
v -28.172701 -38.159759 91.164080
v -47.803428 -34.089742 133.375837
v -48.543269 35.168052 123.752712
v -28.174695 33.316291 86.352517
v -48.543269 14.798680 91.164080
v -33.730486 0.717580 73.389283
v -33.730486 -19.998997 77.469633
v -35.952005 45.159847 108.577784
v -48.543269 4.421102 165.603376
v -39.284283 -43.715042 122.633324
v -48.543269 -3.342792 88.203118
v -28.172701 -48.903831 130.044755
v -36.322922 -41.487142 145.237738
v -34.099410 35.910686 88.952386
v -33.730486 20.720458 77.839753
v -46.692669 -35.565364 113.389346
v -33.730486 -49.270325 125.594286
v -41.136878 -21.860403 86.722638
v -33.730486 47.011608 107.467423
v -34.099410 -36.674492 89.692627
v -36.322922 -44.824170 108.207664
v -47.432510 28.870136 101.175380
v -38.542447 38.119297 146.718219
f 59 85 105 
f 44 43 49 
f 43 46 49 
f 46 48 50 
f 50 48 52 
f 52 48 54 
f 46 43 55 
f 49 46 58 
f 43 44 59 
f 48 46 62 
f 44 49 63 
f 54 48 67 
f 45 49 68 
f 49 65 68 
f 65 56 68 
f 45 60 69 
f 50 52 70 
f 69 51 72 
f 46 55 73 
f 55 62 73 
f 46 50 74 
f 53 63 75 
f 66 53 75 
f 52 54 76 
f 61 47 77 
f 60 45 78 
f 45 68 78 
f 58 46 79 
f 46 74 79 
f 74 58 79 
f 49 58 80 
f 65 49 80 
f 58 65 80 
f 55 43 81 
f 43 59 81 
f 59 55 81 
f 59 44 82 
f 44 63 82 
f 64 59 82 
f 63 64 82 
f 49 45 83 
f 63 49 83 
f 45 69 83 
f 72 57 83 
f 69 72 83 
f 75 63 83 
f 77 47 83 
f 57 77 83 
f 50 56 84 
f 74 50 84 
f 48 62 85 
f 64 48 85 
f 59 64 85 
f 66 75 86 
f 83 47 86 
f 75 83 86 
f 76 54 87 
f 76 87 88 
f 57 71 88 
f 71 76 88 
f 77 57 88 
f 61 77 88 
f 87 61 88 
f 42 71 89 
f 71 57 89 
f 57 72 89 
f 72 51 89 
f 48 64 90 
f 67 48 90 
f 53 67 90 
f 62 46 91 
f 46 73 91 
f 73 62 91 
f 56 50 92 
f 50 70 92 
f 71 42 93 
f 52 76 93 
f 76 71 93 
f 42 89 93 
f 68 56 94 
f 56 78 94 
f 78 68 94 
f 56 65 95 
f 65 58 95 
f 58 74 95 
f 84 56 95 
f 74 84 95 
f 87 54 96 
f 87 96 97 
f 47 61 97 
f 86 47 97 
f 66 86 97 
f 61 87 97 
f 96 66 97 
f 70 52 98 
f 92 70 98 
f 60 78 99 
f 78 56 99 
f 56 92 99 
f 89 51 100 
f 52 93 100 
f 93 89 100 
f 63 53 101 
f 64 63 101 
f 90 64 101 
f 53 90 101 
f 51 69 102 
f 69 60 102 
f 98 52 102 
f 100 51 102 
f 52 100 102 
f 92 98 103 
f 60 99 103 
f 99 92 103 
f 102 60 103 
f 98 102 103 
f 53 66 104 
f 67 53 104 
f 54 67 104 
f 66 96 104 
f 96 54 104 
f 55 59 105 
f 62 55 105 
f 85 62 105 
o convex_2
v -48.915674 1.088208 174.135610
v -27.804357 31.834578 189.318658
v -27.804357 31.834578 176.356331
v -28.174296 -32.981920 166.726245
v -34.099518 -28.903056 189.318658
v -41.506563 22.947560 165.612403
v -48.173729 4.057001 189.318658
v -46.691907 -14.084906 165.612403
v -28.174296 32.951102 165.612403
v -27.804357 -31.491069 189.318658
v -44.840146 -17.047245 189.318658
v -44.840146 17.016428 189.318658
v -33.729579 -31.123197 165.612403
v -47.061846 13.318345 165.612403
v -31.135874 31.098834 189.318658
v -48.915674 -1.119025 188.945058
v -33.729579 31.092380 166.357285
v -41.506563 -22.604052 167.468806
v -48.543668 -4.823563 165.612403
v -28.174296 -32.981920 165.612403
v -27.804357 -32.239721 173.764329
v -48.543668 4.424873 165.612403
v -27.804357 31.466706 172.650488
v -48.915674 1.088208 189.318658
v -35.953346 -27.050787 189.318658
v -42.248507 -21.493981 165.612403
v -28.914174 32.951102 165.612403
v -28.544235 -31.497523 187.833537
f 110 118 133 
f 110 107 112 
f 107 108 114 
f 113 111 114 
f 108 107 115 
f 107 110 115 
f 110 112 116 
f 112 107 117 
f 113 114 118 
f 111 113 119 
f 117 111 119 
f 112 117 119 
f 117 107 120 
f 113 116 121 
f 111 117 122 
f 117 120 122 
f 119 113 124 
f 121 106 124 
f 113 121 124 
f 109 118 125 
f 118 114 125 
f 108 115 126 
f 115 109 126 
f 109 125 126 
f 124 106 127 
f 119 124 127 
f 114 108 128 
f 125 114 128 
f 108 126 128 
f 126 125 128 
f 116 112 129 
f 112 119 129 
f 106 121 129 
f 121 116 129 
f 127 106 129 
f 119 127 129 
f 110 116 130 
f 118 110 130 
f 116 123 130 
f 123 118 130 
f 116 113 131 
f 113 118 131 
f 123 116 131 
f 118 123 131 
f 107 114 132 
f 114 111 132 
f 120 107 132 
f 111 122 132 
f 122 120 132 
f 109 115 133 
f 115 110 133 
f 118 109 133 
