o convex_0
v 2.856855 -28.667665 598.844800
v 12.247188 28.002994 608.235465
v 6.881284 27.997447 653.168153
v -28.322642 5.198268 598.844800
v -20.610557 -20.280230 653.168153
v 27.003425 -10.223074 653.168153
v 28.344902 5.198268 598.844800
v -21.278489 19.615559 653.168153
v -12.224928 28.002994 598.844800
v 6.881284 -27.996448 653.168153
v 24.988405 14.584207 653.168153
v -20.610557 -20.280230 598.844800
v 22.642225 -17.933745 598.844800
v -28.653801 -3.178072 653.168153
v -8.200500 -27.652519 653.168153
v 20.963977 19.953941 598.844800
v -8.200500 27.659065 653.168153
v -26.981165 -10.223074 598.844800
v 16.608389 -23.630766 653.168153
v -11.888156 -26.315633 598.844800
v -22.956737 17.607456 598.844800
v -26.644393 11.233671 653.168153
v 13.925437 -25.311581 598.844800
v 28.676061 2.513402 653.168153
v 28.008129 -6.866990 598.844800
v 17.949865 22.633260 653.168153
v -25.302917 -13.906445 653.168153
v 12.247188 28.002994 598.844800
v 22.642225 -17.933745 653.168153
v 26.329881 11.904888 598.844800
v -15.575812 -24.307530 653.168153
v -3.171368 -28.667665 653.168153
v -5.180775 -28.329283 598.844800
v -28.653801 -3.178072 598.844800
v -15.575812 24.308529 653.168153
v -28.653801 2.851784 653.168153
v 27.671357 8.215970 653.168153
v -26.644393 11.233671 598.844800
v 25.325177 -13.906445 598.844800
v 28.676061 -2.845237 653.168153
v 19.622500 -21.284281 598.844800
v -23.624669 -16.591312 598.844800
v 28.676061 -3.178072 598.844800
v -27.649097 -8.209424 653.168153
v 11.910416 26.322179 653.168153
v 8.222760 -27.652519 598.844800
v 11.910416 -26.315633 653.168153
v 20.963977 19.953941 653.168153
v -16.586129 -23.636313 598.844800
v -24.966145 14.584207 653.168153
v 22.978997 17.601909 598.844800
v -12.224928 28.002994 608.235465
v -20.273785 20.625158 598.844800
v 2.856855 -28.667665 653.168153
v -6.859024 27.997447 653.168153
v -27.649097 8.215970 653.168153
v 24.320473 -15.587260 653.168153
v 20.296045 -20.618612 653.168153
v -23.961441 -16.258477 653.168153
v -11.888156 -26.315633 653.168153
v -19.269081 -21.622663 653.168153
v -11.888156 26.322179 653.168153
v 28.008129 -6.866990 653.168153
v -25.302917 -13.906445 598.844800
f 42 59 64 
f 3 5 6 
f 1 4 7 
f 5 3 8 
f 7 4 9 
f 6 5 10 
f 3 6 11 
f 4 1 12 
f 1 7 13 
f 5 8 14 
f 10 5 15 
f 7 9 16 
f 8 3 17 
f 4 12 18 
f 6 10 19 
f 12 1 20 
f 9 4 21 
f 14 8 22 
f 1 13 23 
f 11 6 24 
f 13 7 25 
f 3 11 26 
f 5 14 27 
f 9 2 28 
f 2 16 28 
f 16 9 28 
f 6 19 29 
f 7 16 30 
f 15 5 31 
f 10 15 32 
f 20 1 33 
f 15 20 33 
f 1 32 33 
f 32 15 33 
f 4 18 34 
f 8 17 35 
f 14 22 36 
f 4 34 36 
f 34 14 36 
f 24 7 37 
f 11 24 37 
f 7 30 37 
f 30 11 37 
f 21 4 38 
f 13 25 39 
f 25 6 39 
f 24 6 40 
f 23 13 41 
f 19 23 41 
f 18 12 42 
f 7 24 43 
f 25 7 43 
f 24 40 43 
f 27 14 44 
f 18 27 44 
f 14 34 44 
f 34 18 44 
f 2 3 45 
f 3 26 45 
f 26 2 45 
f 10 1 46 
f 1 23 46 
f 46 23 47 
f 19 10 47 
f 23 19 47 
f 10 46 47 
f 16 2 48 
f 2 26 48 
f 26 11 48 
f 12 20 49 
f 20 31 49 
f 8 21 50 
f 22 8 50 
f 21 38 50 
f 38 22 50 
f 30 16 51 
f 11 30 51 
f 16 48 51 
f 48 11 51 
f 3 2 52 
f 2 9 52 
f 8 35 52 
f 21 8 53 
f 9 21 53 
f 52 9 53 
f 8 52 53 
f 1 10 54 
f 32 1 54 
f 10 32 54 
f 17 3 55 
f 3 52 55 
f 52 17 55 
f 4 36 56 
f 36 22 56 
f 38 4 56 
f 22 38 56 
f 6 29 57 
f 29 13 57 
f 13 39 57 
f 39 6 57 
f 13 29 58 
f 29 19 58 
f 41 13 58 
f 19 41 58 
f 12 5 59 
f 5 27 59 
f 42 12 59 
f 20 15 60 
f 15 31 60 
f 31 20 60 
f 5 12 61 
f 31 5 61 
f 12 49 61 
f 49 31 61 
f 35 17 62 
f 17 52 62 
f 52 35 62 
f 6 25 63 
f 40 6 63 
f 25 43 63 
f 43 40 63 
f 27 18 64 
f 18 42 64 
f 59 27 64 
o convex_1
v -5.521821 28.338323 608.234021
v 5.544048 28.338323 653.168153
v 5.544048 28.003060 653.168153
v 5.544048 28.338323 608.234021
v -2.838759 28.673587 653.168153
v -5.521821 28.003060 653.168153
v 5.544048 28.003060 608.234021
v 2.860986 28.673587 608.234021
v -5.521821 28.003060 608.234021
v 2.860986 28.673587 653.168153
v -2.838759 28.673587 608.234021
v -5.521821 28.338323 653.168153
f 70 69 76 
f 66 67 68 
f 67 66 69 
f 67 69 70 
f 68 67 71 
f 65 68 71 
f 67 70 71 
f 66 68 72 
f 68 65 72 
f 70 65 73 
f 65 71 73 
f 71 70 73 
f 69 66 74 
f 66 72 74 
f 72 69 74 
f 65 69 75 
f 72 65 75 
f 69 72 75 
f 69 65 76 
f 65 70 76 
o convex_2
v -11.221097 28.338323 544.523810
v 17.615773 34.709581 561.283975
v 17.615773 28.338323 561.283975
v -7.533342 28.674473 578.389710
v -17.593677 34.709581 561.618516
v 5.542681 34.709581 541.505583
v 7.555438 34.709581 578.386034
v 11.577504 28.338323 544.858351
v -17.593677 28.338323 561.618516
v -13.902475 34.709581 547.207495
v 7.555438 28.338323 577.044191
v -7.533342 34.709581 578.389710
v 15.603016 34.709581 549.887504
v -2.167140 28.338323 540.832824
v -5.520585 34.709581 541.509259
v -16.921609 28.338323 552.905730
v 14.930949 28.338323 568.324053
v -15.577474 28.338323 567.320428
v 16.943705 28.338323 552.905730
v 7.555438 28.674473 578.386034
v 15.937327 34.709581 566.651345
v -17.593677 34.709581 555.589415
v -15.577474 34.709581 567.320428
v 5.542681 28.338323 541.505583
v 10.236815 34.709581 543.854727
v 17.615773 34.709581 555.589415
v 2.189236 34.709581 540.832824
v -15.915231 28.338323 550.225721
v -5.854896 28.338323 577.713274
v -11.221097 34.709581 544.523810
v -7.195585 28.338323 542.178342
v 13.590260 28.338323 546.869277
v -15.915231 34.709581 550.225721
v 16.943705 28.338323 564.302201
v 13.590260 34.709581 546.869277
v -17.593677 28.338323 555.589415
v 17.615773 28.338323 555.589415
f 95 102 113 
f 81 78 82 
f 78 81 83 
f 79 77 84 
f 77 79 85 
f 81 82 86 
f 85 79 87 
f 80 83 88 
f 83 81 88 
f 82 78 89 
f 84 77 90 
f 86 82 91 
f 77 85 92 
f 87 79 93 
f 81 85 94 
f 85 87 94 
f 79 84 95 
f 83 80 96 
f 93 83 96 
f 87 93 96 
f 78 83 97 
f 83 93 97 
f 85 81 98 
f 81 86 98 
f 80 88 99 
f 88 81 99 
f 81 94 99 
f 94 80 99 
f 84 90 100 
f 82 89 101 
f 100 82 101 
f 84 100 101 
f 78 79 102 
f 89 78 102 
f 95 89 102 
f 91 82 103 
f 90 91 103 
f 82 100 103 
f 100 90 103 
f 86 77 104 
f 77 92 104 
f 80 94 105 
f 94 87 105 
f 96 80 105 
f 87 96 105 
f 77 86 106 
f 86 91 106 
f 106 91 107 
f 90 77 107 
f 91 90 107 
f 77 106 107 
f 95 84 108 
f 89 95 108 
f 98 86 109 
f 92 98 109 
f 86 104 109 
f 104 92 109 
f 79 78 110 
f 93 79 110 
f 78 97 110 
f 97 93 110 
f 101 89 111 
f 84 101 111 
f 108 84 111 
f 89 108 111 
f 92 85 112 
f 85 98 112 
f 98 92 112 
f 79 95 113 
f 102 79 113 
o convex_3
v -7.533797 28.673653 578.391679
v 7.556024 34.709581 598.509470
v -7.533797 34.709581 598.509470
v 7.556024 28.673653 598.509470
v 7.556024 34.709581 578.391679
v 7.556024 28.673653 578.391679
v -7.533797 34.709581 578.391679
v -7.533797 28.673653 598.509470
f 114 117 121 
f 115 116 117 
f 116 115 118 
f 115 117 118 
f 117 114 119 
f 114 118 119 
f 118 117 119 
f 114 116 120 
f 118 114 120 
f 116 118 120 
f 116 114 121 
f 117 116 121 
o convex_4
v 12.250635 34.709581 608.234021
v -7.531958 28.674572 598.511374
v -12.228407 28.002994 598.846408
v 12.250635 28.002994 608.234021
v -12.228407 34.709581 608.234021
v 12.250635 34.709581 598.845456
v -12.228407 34.709581 598.846408
v -12.228407 28.002994 608.234021
v 12.250635 28.002994 598.846408
v 7.554186 34.709581 598.511374
v 7.554186 28.674572 598.511374
v -7.531958 34.709581 598.511374
f 128 131 133 
f 125 122 126 
f 122 125 127 
f 126 122 127 
f 123 124 128 
f 124 126 128 
f 126 127 128 
f 124 125 129 
f 125 126 129 
f 126 124 129 
f 124 123 130 
f 125 124 130 
f 127 125 130 
f 128 127 131 
f 130 123 132 
f 127 130 132 
f 131 127 132 
f 123 131 132 
f 123 128 133 
f 131 123 133 
