o convex_0
v -36.015100 4.367561 568.709626
v -33.434355 -17.135771 512.788921
v -35.154655 3.943086 514.513348
v -33.003985 17.280340 531.719298
v -34.294210 -7.238107 567.417675
v -36.015100 -17.135771 515.805300
v -36.015100 17.280340 515.805300
v -33.003985 17.280340 512.794395
v -33.003985 -17.135771 531.719298
v -36.015100 -14.983079 547.633296
v -34.294210 9.535367 564.833771
v -36.015100 15.127649 546.768345
v -36.015100 -8.956217 565.698722
f 10 5 13 
f 3 2 6 
f 3 6 7 
f 6 1 7 
f 2 3 8 
f 3 7 8 
f 7 4 8 
f 4 5 9 
f 6 2 9 
f 2 8 9 
f 8 4 9 
f 1 6 10 
f 9 5 10 
f 6 9 10 
f 1 5 11 
f 5 4 11 
f 4 7 12 
f 7 1 12 
f 1 11 12 
f 11 4 12 
f 5 1 13 
f 1 10 13 
o convex_1
v -13.646397 33.194085 490.843555
v -14.076430 -35.204229 449.987267
v -31.281621 -33.049516 477.945346
v -31.711654 18.131815 444.390270
v -33.003690 -17.130886 531.708812
v -13.214427 -17.130886 518.810603
v -33.003690 17.275455 531.708812
v -13.214427 31.902639 443.107625
v -30.851588 33.622265 481.389652
v -32.571720 -16.702706 445.251346
v -13.214427 -32.621336 492.996246
v -13.214427 17.275455 518.810603
v -13.214427 -11.543827 440.084887
v -27.409388 17.275455 531.717782
v -32.571720 29.747926 471.935749
v -20.958894 -30.894804 444.399239
v -30.421556 -33.049516 490.834585
v -14.076430 35.348798 449.987267
v -27.409388 -17.130886 531.717782
v -21.388927 31.039373 445.260316
v -29.991523 32.330819 493.848353
v -32.571720 -31.758070 484.833958
v -17.516693 3.939717 440.084887
v -13.214427 -31.758070 443.107625
v -29.561490 -17.559066 443.107625
v -13.214427 31.474459 496.431583
v -32.571720 16.847275 445.260316
v -27.841358 -24.872658 445.251346
v -32.571720 31.039373 490.843555
v -29.561490 17.275455 443.107625
v -13.214427 -33.912783 486.107634
v -33.003690 -17.130886 511.921991
f 20 40 45 
f 21 19 24 
f 19 21 25 
f 21 24 26 
f 20 18 27 
f 15 16 29 
f 16 15 30 
f 24 18 30 
f 22 14 31 
f 18 24 32 
f 24 19 32 
f 19 25 32 
f 27 18 32 
f 25 27 32 
f 17 28 33 
f 28 22 33 
f 31 21 33 
f 22 31 33 
f 14 22 34 
f 23 16 35 
f 16 30 35 
f 30 18 35 
f 21 26 36 
f 26 24 37 
f 15 29 37 
f 37 29 38 
f 23 17 38 
f 36 26 38 
f 26 37 38 
f 25 21 39 
f 20 27 39 
f 27 25 39 
f 21 31 39 
f 31 14 39 
f 14 34 39 
f 34 20 39 
f 17 23 40 
f 28 17 40 
f 20 28 40 
f 16 23 41 
f 29 16 41 
f 38 29 41 
f 23 38 41 
f 28 20 42 
f 22 28 42 
f 34 22 42 
f 20 34 42 
f 17 33 43 
f 33 21 43 
f 21 36 43 
f 38 17 43 
f 36 38 43 
f 30 15 44 
f 24 30 44 
f 15 37 44 
f 37 24 44 
f 18 20 45 
f 23 35 45 
f 35 18 45 
f 40 23 45 
o convex_2
v 21.200842 -4.657488 440.084887
v 29.802427 19.426125 511.498317
v -13.214427 19.426125 511.498317
v -0.738334 -37.353636 492.568445
v -13.214427 31.898933 443.097729
v -13.214427 -31.754364 443.097729
v 31.953939 -32.616367 478.790463
v 31.525422 32.760936 477.511228
v 32.386920 -17.130296 511.498317
v -13.214427 -19.281556 511.498317
v 32.386920 17.709615 445.250757
v -1.595368 37.498205 491.708632
v 18.187832 -33.043621 444.817355
v 7.439198 37.063455 444.390944
v 32.386920 -17.130296 444.817355
v 3.564691 -38.215639 445.691149
v 32.386920 29.320420 497.293923
v -13.214427 -33.905624 486.969174
v 30.235408 -27.886594 502.886204
v -13.214427 33.622939 488.695791
v -13.214427 12.110343 440.084887
v -9.339919 37.063455 449.990215
v 20.339344 30.182423 443.538121
v -1.166851 32.760936 501.166577
v -11.062914 -36.491633 449.990215
v -3.746880 -17.565046 440.084887
v 30.663925 -33.470874 487.835977
v -2.885382 -31.327111 502.459792
v 1.413178 38.360208 486.542762
v 4.854705 17.274866 440.084887
v 30.663925 33.622939 486.535772
v 13.884807 -32.616367 443.097729
f 71 46 77 
f 48 50 51 
f 47 48 54 
f 48 51 55 
f 54 48 55 
f 54 52 60 
f 46 56 60 
f 56 54 60 
f 52 58 60 
f 58 52 61 
f 47 54 62 
f 56 53 62 
f 54 56 62 
f 55 51 63 
f 50 48 65 
f 51 50 66 
f 59 50 67 
f 50 65 67 
f 65 57 67 
f 56 46 68 
f 53 56 68 
f 59 53 68 
f 48 47 69 
f 47 62 69 
f 62 57 69 
f 65 48 69 
f 57 65 69 
f 61 49 70 
f 51 61 70 
f 49 63 70 
f 63 51 70 
f 51 66 71 
f 66 46 71 
f 52 54 72 
f 49 61 72 
f 61 52 72 
f 64 49 72 
f 54 64 72 
f 54 55 73 
f 63 49 73 
f 55 63 73 
f 49 64 73 
f 64 54 73 
f 59 67 74 
f 67 57 74 
f 50 59 75 
f 66 50 75 
f 46 66 75 
f 68 46 75 
f 59 68 75 
f 53 59 76 
f 62 53 76 
f 57 62 76 
f 59 74 76 
f 74 57 76 
f 46 60 77 
f 60 58 77 
f 61 51 77 
f 58 61 77 
f 51 71 77 
o convex_3
v -13.214427 -18.426375 511.928560
v 30.235829 18.570944 511.928560
v 35.828531 17.278066 518.811740
v -13.214427 17.274444 518.811740
v 35.828531 -17.133497 518.811740
v 32.813753 -17.133497 511.498317
v -13.214427 18.570944 511.498317
v -13.214427 -17.133497 518.811740
v 32.813753 17.274444 511.498317
v -13.214427 -18.426375 511.498317
v 35.828531 -17.133497 515.369076
v 30.663083 -18.426375 511.498317
f 83 88 89 
f 80 79 81 
f 80 81 82 
f 81 79 84 
f 78 81 84 
f 81 78 85 
f 78 82 85 
f 82 81 85 
f 79 80 86 
f 83 84 86 
f 84 79 86 
f 78 84 87 
f 84 83 87 
f 80 82 88 
f 86 80 88 
f 83 86 88 
f 82 78 89 
f 78 87 89 
f 87 83 89 
f 88 82 89 
o convex_4
v 27.653273 17.280340 531.717192
v 14.748663 -17.135771 518.811740
v 35.828531 -17.135771 518.811740
v 14.748663 17.280340 518.811740
v 35.828531 17.280340 518.811740
v 35.828531 -15.410923 532.147983
v 26.792828 -17.135771 531.286401
v 35.828531 15.127649 532.147983
f 90 95 97 
f 92 91 93 
f 93 90 94 
f 92 93 94 
f 92 94 95 
f 95 90 96 
f 91 92 96 
f 93 91 96 
f 90 93 96 
f 92 95 96 
f 94 90 97 
f 95 94 97 
o convex_5
v 35.828531 -4.223960 568.711521
v 34.107726 -15.414965 532.147983
v 35.828531 -15.414965 532.147983
v 34.107726 15.129333 532.147983
v 34.107726 -7.240718 567.419486
v 35.828531 15.129333 546.775546
v 34.107726 8.674249 566.127450
v 35.828531 15.129333 532.147983
v 35.828531 -14.984427 547.638096
v 35.828531 8.674249 566.131029
f 103 104 107 
f 100 99 101 
f 101 99 102 
f 98 100 103 
f 102 98 104 
f 101 102 104 
f 103 101 104 
f 100 101 105 
f 103 100 105 
f 101 103 105 
f 100 98 106 
f 99 100 106 
f 98 102 106 
f 102 99 106 
f 98 103 107 
f 104 98 107 
